<svg width="49" height="50" viewBox="0 0 49 50" fill="none" xmlns="http://www.w3.org/2000/svg">
<path d="M48 3.525L47.7 0.375L44.7 1.375C39.5586 3.16136 34.0682 3.70954 28.675 2.975C23.0079 2.09553 17.2073 2.87704 11.975 5.225C9.20123 6.40612 6.76691 8.26229 4.89372 10.6245C3.02052 12.9868 1.76794 15.78 1.25003 18.75C0.578476 22.5867 0.914434 26.5321 2.22503 30.2C3.06892 28.2952 4.05504 26.4567 5.17503 24.7C7.71553 20.9621 11.2357 17.9954 15.35 16.125C19.3136 14.3153 23.646 13.4591 28 13.625C23.8551 14.2587 19.8875 15.7487 16.35 18C14.6437 19.0721 13.0811 20.3575 11.7 21.825C10.3792 23.2918 9.21458 24.8921 8.22503 26.6C6.36635 30.17 5.04382 33.9944 4.30003 37.95C3.49831 41.9183 3.06315 45.952 3.00003 50H8.00003C8.23503 46.3696 8.72794 42.7605 9.47503 39.2C12.9436 41.073 16.8334 42.0282 20.775 41.975C24.4512 41.9725 28.0896 41.2329 31.475 39.8C50.5 31.675 48 4.65 48 3.525Z" fill="#EB3779"/>
</svg>
