<svg width="71" height="78" viewBox="0 0 71 78" fill="none" xmlns="http://www.w3.org/2000/svg">
<path d="M23.9265 77.1529C20.6877 74.9065 18.6732 72.2791 17.8204 69.2999C16.6262 65.1666 17.7541 60.6902 20.2309 56.1153C20.5779 55.4804 20.9092 54.8617 21.2249 54.243C17.9228 47.3009 15.2165 40.3935 14.3299 33.2961C13.906 31.7197 15.2118 30.2657 16.4001 28.9425C17.3405 27.8954 18.2074 26.9301 18.0855 26.0507C17.7158 23.9946 16.6362 23.2409 15.1807 22.3555C13.3963 21.3386 11.5496 20.1746 10.9912 18.2647C10.0928 14.8369 8.90656 13.1043 7.92147 12.2204C6.93638 11.3365 6.1371 11.1872 5.52579 11.1036C3.83283 10.9025 1.99684 11.288 0.991387 11.8555C0.331548 12.2285 0.0477576 12.7006 0.297242 13.1417C1.14078 14.7749 2.1553 16.421 3.18323 18.0889C5.87749 22.4606 8.66385 26.9817 8.70501 31.8101C8.65293 35.8741 9.24488 40.2027 9.85289 44.649C10.7137 50.944 11.6068 57.4747 10.75 63.8233C10.1073 68.6047 10.1775 71.1492 10.9105 72.4024C13.4105 76.7167 18.8795 76.9433 23.2985 77.1264C23.5104 77.1352 23.7199 77.1439 23.9265 77.1529ZM70.8701 76.9229C63.6714 63.5947 45.518 63.2425 32.2812 63.7004L34.0768 61.2485C38.0619 55.7978 38.7984 51.1031 38.783 46.1778C38.7724 44.4979 38.6586 42.7952 38.5421 41.0512C38.3158 37.6647 38.0792 34.1229 38.5677 30.292C38.9218 27.4717 40.8565 25.635 42.3823 24.1884C42.6176 23.9056 42.9419 23.6216 43.28 23.3255C44.0504 22.6508 44.8926 21.9131 44.9174 20.9837C44.9416 18.3417 44.5069 16.9867 43.9622 15.7128C43.8518 15.4579 43.7317 15.2016 43.6083 14.9384C43.1232 13.9031 42.5879 12.7608 42.393 11.1738C42.2305 9.88196 42.165 8.72859 42.1071 7.70851C42.056 6.80896 42.0107 6.01307 41.9101 5.31727C41.711 3.84881 41.3692 2.85286 40.2439 1.69127C38.461 0.217696 36.2509 -0.0993196 34.7914 0.238459C34.0851 0.415577 33.1114 0.869092 33.3762 1.44077C37.0108 9.36317 35.6527 16.8397 34.2894 24.3445C34.0815 25.4888 33.8735 26.6337 33.6831 27.7809C32.1312 37.3167 28.6357 46.569 22.7039 57.5585C20.4322 61.7589 19.6364 65.3802 20.5203 68.4606C21.3887 71.4904 23.9514 74.312 29.134 76.7881L70.8701 76.9229Z" fill="#FEFCFC"/>
<path d="M23.9265 77.1529C20.6877 74.9065 18.6732 72.2791 17.8204 69.2999C16.6262 65.1666 17.7541 60.6902 20.2309 56.1153C20.5779 55.4804 20.9092 54.8617 21.2249 54.243C17.9228 47.3009 15.2165 40.3935 14.3299 33.2961C13.906 31.7197 15.2118 30.2657 16.4001 28.9425C17.3405 27.8954 18.2074 26.9301 18.0855 26.0507C17.7158 23.9946 16.6362 23.2409 15.1807 22.3555C13.3963 21.3386 11.5496 20.1746 10.9912 18.2647C10.0928 14.8369 8.90656 13.1043 7.92147 12.2204C6.93638 11.3365 6.1371 11.1872 5.52579 11.1036C3.83283 10.9025 1.99684 11.288 0.991387 11.8555C0.331548 12.2285 0.0477576 12.7006 0.297242 13.1417C1.14078 14.7749 2.1553 16.421 3.18323 18.0889C5.87749 22.4606 8.66385 26.9817 8.70501 31.8101C8.65293 35.8741 9.24488 40.2027 9.85289 44.649C10.7137 50.944 11.6068 57.4747 10.75 63.8233C10.1073 68.6047 10.1775 71.1492 10.9105 72.4024C13.4105 76.7167 18.8795 76.9433 23.2985 77.1264C23.5104 77.1352 23.7199 77.1439 23.9265 77.1529ZM70.8701 76.9229C63.6714 63.5947 45.518 63.2425 32.2812 63.7004L34.0768 61.2485C38.0619 55.7978 38.7984 51.1031 38.783 46.1778C38.7724 44.4979 38.6586 42.7952 38.5421 41.0512C38.3158 37.6647 38.0792 34.1229 38.5677 30.292C38.9218 27.4717 40.8565 25.635 42.3823 24.1884C42.6176 23.9056 42.9419 23.6216 43.28 23.3255C44.0504 22.6508 44.8926 21.9131 44.9174 20.9837C44.9416 18.3417 44.5069 16.9867 43.9622 15.7128C43.8518 15.4579 43.7317 15.2016 43.6083 14.9384C43.1232 13.9031 42.5879 12.7608 42.393 11.1738C42.2305 9.88196 42.165 8.72859 42.1071 7.70851C42.056 6.80896 42.0107 6.01307 41.9101 5.31727C41.711 3.84881 41.3692 2.85286 40.2439 1.69127C38.461 0.217696 36.2509 -0.0993196 34.7914 0.238459C34.0851 0.415577 33.1114 0.869092 33.3762 1.44077C37.0108 9.36317 35.6527 16.8397 34.2894 24.3445C34.0815 25.4888 33.8735 26.6337 33.6831 27.7809C32.1312 37.3167 28.6357 46.569 22.7039 57.5585C20.4322 61.7589 19.6364 65.3802 20.5203 68.4606C21.3887 71.4904 23.9514 74.312 29.134 76.7881L70.8701 76.9229Z" stroke="#EB3779"/>
</svg>
